<?xml version="1.0" encoding="UTF-8"?>
<svg id="Layer_2" data-name="Layer 2" xmlns="http://www.w3.org/2000/svg" viewBox="0 0 915.17 553.99">
  <defs>
    <style>
      .cls-1 {
        fill: #fff;
      }

      .cls-2 {
        fill: #487fb5;
      }
    </style>
  </defs>
  <g id="dark_bg_copy_2" data-name="dark bg copy 2">
    <path id="bennie" class="cls-1" d="m311.16,335.94c-7.84-5.51-12.29-14.62-22.98-16.39-6.27-1.04-9.8-6.25-10.85-12.5-.62-3.71-2.67-4.53-5.96-5.83-16.91-5.78-29-16.92-41.62-29.62,35.32-3.27,87.55,7.86,101.7-35.32-26.25,47.88-88.97,24.99-133.06,34.71,6.02-15.11,18.72-19.86,31.13-23.82-39.44,1.28-78.04-6.05-117.88-8.7,10.17-11.62,12.99-19.21,12.81-34.56,35.23,10.04,74.17,18.19,107.28,29.45,29.4-23.17,94.08-12.65,97.79-66.52.61-4.94,1.67-8.74,9.12-8.88-4.77-2.34-8.04-3.94-12.82-6.28,3.92-.25,6.2-.39,10.06-.64-4.7-2.5-8.21-4.37-12.89-6.86,4.43-1.04,7.63-1.8,12.23-2.88-4.25-1.98-7.19-3.35-10.12-4.73,23.5-4.1,50.64-.94,62.46,22.63,2.11,3.37,3.81,5.27,7.71,6.21,10.5,2.7,17.71,5.1,26.25,13.28-46.95,4.33-41.86,26.48-43.93,64.84-1.34,35.31-23.88,54.69-57.67,59.33-2.08.8-4.19,2.28-5.44,4.06-.43.61,1.4,3.46,2.78,4.56,10.09,8.05,10.36,11.86,20.68,19.61m-36.95-22.76c-.85,2.3-1.91,5.2-3.05,8.3,4.75,4.31,9.81,6.58,14.01,11.17,5.56,3.48,8.34,2.43,16.34,2.09-10.36-8.39-14.31-17.82-27.29-21.56Z"/>
    <path id="branch" class="cls-1" d="m0,435.46c47.06-21.6,96.02-40.27,145.36-53.51,21.54-6.05,25.25-13.24,48.73-22.15,12.07-4.58,24.14-25.8,1.9-50.28-8.75-9.63-18.86-17.93-28.31-26.91-2.61-2.48-3.02-6.67-.64-9.37,3.55-4.04,7.52-3.31,13.17,1.6,7.21,6.27,16.46,10.1,23.77,16.33,41.25,37.73,21.67,44.85,25.67,65.07,22.01-4.46,44.13-8.41,65.96-13.64,7.72-1.85,15.46-5.77,21.89-10.51,29.32-21.63,64.4-34.93,97.18-66.3,8.28-8.93,22.39-8.63,33.59-8.88,5.94-.23,11.83.68,17.58,2.17,10.94,2.83,33.82.18,36.06-1.03,26.28-15.21,47.41-38.48,78.92-43.44,16.64-3.2,27.27-14.71,32.13-30.25,9.84-31.43,22.04-61.56,41.66-88.31,7.53-10.27,2.96-19.74-1.75-29.69-3.94-12.89-34.62-61.42-14.76-66.35,1.88-.28,6.13,3.3,6.29,5.4,1.66,21.52,13.93,37.38,26.66,53.36,11.67,14.66,15.72,31.73,6.08,48.56-19.52,30.92-21.4,65.77-34.05,99.25-3.06,8.05,6.63,9.64,11.83,12.11,8.1,3.99,15.68,9.07,23.92,12.72,27.1,16.32,54.13,11.45,83.68,13.82,5.51,2.27,5.19,11.34-.85,12.53-104.07,23.74-135.21-49.58-216.5,12.08-61.05,55.03-101.06,1.15-118.59,30.81-3.92,7.18-16.42,9.25-24.17,14.84-24.16,17.42-46.94,36.96-72.18,52.58-25.03,13.73-55.99,17.52-83.36,26.06-63.59,23.8-130.06,40.4-187.64,79.23-11.39,7.68-47.41,33.69-58.95,41.39"/>
    <path id="moe" class="cls-1" d="m455.6,257.83c6.79-5.09,6.96-7.6,13.6-12.9.91-.72,2.11-2.6,1.83-3-1.96-2.88-5.6-3.21-8.79-3.7-20.62-4.37-31.43-16.91-32.71-38-1.31-25.05,1.79-40.05-28.89-42.64,5.61-5.37,10.36-6.96,17.26-8.73,2.56-.61,3.68-1.87,5.07-4.08,7.77-15.5,25.62-17.57,41.08-14.88-1.93.9-3.86,1.8-6.66,3.11,3.03.71,5.13,1.21,8.05,1.89-3.08,1.64-5.39,2.87-8.48,4.51,2.54.16,4.04.26,6.62.42-3.14,1.54-5.3,2.59-8.43,4.13,4.9.09,5.59,2.59,6,5.84,4.19,38.4,43.32,25.47,64.6,44.02,20.59-8.27,47.58-12.73,70.28-19.64-.19,9.81,1.86,15.35,8.43,22.73-26.2,1.74-51.59,6.57-77.53,5.72,8.16,2.6,16.51,5.73,20.47,15.66-28.97-6.38-70.26,8.66-87.51-22.83,9.33,28.41,43.64,21.07,66.89,23.23-8.29,8.35-16.25,15.68-27.37,19.48-2.17.86-3.51,1.4-3.92,3.84-.69,4.11-3.01,7.54-7.13,8.22-7.03,1.16-9.96,7.16-15.12,10.78m-11.25-3.99c9.54,1.95,13.17-3.84,19.96-8.72-.75-2.04-1.45-3.95-2.01-5.46-8.54,2.46-11.14,8.67-17.95,14.18Z"/>
    <path id="maisie" class="cls-1" d="m736.69,247.54c-8.6-9.7-13.63-5.39-15.08-12.87-.28-1.65-1.19-2.02-2.66-2.6-7.54-2.58-12.93-7.54-18.55-13.2,15.74-1.46,39.02,3.51,45.33-15.74-11.7,21.34-39.65,11.14-59.3,15.47,2.68-6.73,8.34-8.85,13.87-10.61-17.58.57-34.78-2.7-52.54-3.88,4.45-5,5.84-8.75,5.71-15.4,15.56,4.97,32.81,7.02,47.47,13.48,14.31-11.91,41.6-4.97,43.93-30.01.27-2.2.75-3.89,4.06-3.96-2.13-1.04-3.58-1.76-5.71-2.8,1.75-.11,2.76-.18,4.48-.29-2.09-1.12-3.66-1.95-5.75-3.06,1.97-.46,3.4-.8,5.45-1.28-1.89-.88-3.2-1.49-4.51-2.11,10.47-1.83,22.57-.42,27.84,10.08.94,1.5,1.7,2.35,3.43,2.77,4.68,1.2,7.89,2.27,11.7,5.92-37.96,2.16-.53,45.68-41.75,54.64-2.34.24-8.29,1.44-4.72,4.54,4.5,3.59,4.62,5.29,9.22,8.74m-16.47-10.14c-.38,1.02-.85,2.32-1.36,3.7,4.61,3.31,7.06,7.23,13.53,5.91-4.62-3.74-6.38-7.94-12.16-9.61Z"/>
    <path id="abbie" class="cls-1" d="m95.92,398.63c4.21-5.17,3.86-7.12,7.91-12.41.55-.72,1.11-2.38.82-2.63-2.05-1.83-4.89-1.38-7.4-1.15-16.55.59-27.17-6.91-32.15-22.74-5.58-18.64-6.53-31-30.13-27.01,3.25-5.16,6.58-7.27,11.5-9.94,1.84-.95,2.45-2.12,3.09-4.07,2.98-13.29,16.19-18.26,28.48-19.15-1.3,1.05-2.6,2.11-4.48,3.63,2.44-.03,4.14-.05,6.49-.09-2.04,1.84-3.56,3.21-5.6,5.05,1.97-.36,3.13-.57,5.12-.94-2.1,1.77-3.54,2.98-5.64,4.75,3.75-.86,4.75.91,5.68,3.31,11.25,29.61,38.92,10.03,58.03,21.73,14.35-11.04,33.32-18.93,49.4-28.77,1.72,7.52,4.34,11.35,10.74,15.72-19.64,6.31-38.08,14.81-58,19.09,6.71.43,13.68,1.23,18.58,8.05-23.29.64-51.91,19.95-71.03-.77,12.51,19.88,37.26,7.76,55.39,4.99-4.74,7.94-9.41,15.04-17.16,20.05-1.49,1.07-2.41,1.73-2.26,3.67.37,9.05-6.02,4.9-13.35,18.71m-9.34-.9c7.64-.32,9.3-5.43,13.56-10.44-.96-1.42-1.86-2.73-2.57-3.78-6.04,3.5-6.84,8.72-10.99,14.22Z"/>
    <path class="cls-2" d="m686.33,273.96c33.51,7.11,42.42,59.5,29.27,88.04-22.67-23.23-69.03-47.65-45.47-85.03,8.16,11.84,15.78,22.91,23.4,33.98,1.68,2.42,4.12,1.54,3.27-1.33-3.43-11.68-6.85-23.36-10.46-35.66Z"/>
    <path class="cls-2" d="m626.1,69.63c-10.08-11.07-17.78-19.52-25.48-27.98-2.19-2.35-.22-3.51,1.87-2.49,9.5,4.96,19,9.92,29.5,15.4-8.02-30.76-37.68-47.89-73.26-41.69,20.74,20.76,21.03,60.81,67.37,56.76Z"/>
    <path class="cls-2" d="m656.61,275.62c-20.92,29.75-45.54,13.2-67.41,14.86,6.4-22.87,30.67-34.79,58.78-27.65-8.32,4.78-15.02,8.62-21.72,12.47-2.32,1.17-1.31,2.76,1.04,2.63,8.25-.65,16.49-1.3,29.31-2.3Z"/>
    <path class="cls-2" d="m600.23,136.78c23.83-8.27,33.73-21.76,32.33-45.92-4.83,5.3-8.87,9.74-12.9,14.18-1.62,1.63-3.12.97-2.61-1.16,1.83-6.71,3.65-13.42,5.58-20.5-18.98,3.78-23.98,16.16-22.4,53.4Z"/>
    <g>
      <path class="cls-1" d="m379.8,391.86h24.46c2.99,0,5.59.32,7.81.95,2.22.63,4.06,1.51,5.52,2.62s2.55,2.44,3.27,3.97c.71,1.53,1.07,3.19,1.07,4.97,0,2.91-.92,5.46-2.75,7.65,2.11,1.25,3.68,2.87,4.72,4.86,1.04,1.99,1.55,4.26,1.55,6.8,0,2.13-.36,4.05-1.07,5.77-.71,1.72-1.8,3.19-3.25,4.41-1.46,1.22-3.29,2.16-5.51,2.81-2.22.65-4.83.98-7.84.98h-27.98v-45.79Zm28.04,17.58c.8,0,1.58.03,2.34.09,1.31-1.25,1.96-2.68,1.96-4.28s-.65-2.94-1.95-3.85c-1.3-.91-3.2-1.36-5.7-1.36h-15.41v9.4h18.75Zm.18,20.13c2.5,0,4.4-.54,5.7-1.61,1.3-1.07,1.95-2.59,1.95-4.54s-.65-3.48-1.95-4.57c-1.3-1.09-3.2-1.64-5.7-1.64h-18.93v12.36h18.93Z"/>
      <path class="cls-1" d="m458.85,391.86h9.29v37.65h26.63v8.14h-35.92v-45.79Z"/>
      <path class="cls-1" d="m526.03,391.86h9.29v25.22c0,2.07.28,3.91.85,5.52.57,1.61,1.41,2.97,2.53,4.09,1.12,1.11,2.51,1.96,4.17,2.53,1.66.58,3.59.86,5.8.86s4.12-.29,5.79-.86c1.67-.58,3.07-1.42,4.19-2.53,1.12-1.11,1.97-2.48,2.53-4.09.57-1.61.85-3.45.85-5.52v-25.22h9.29v26.34c0,3.01-.51,5.74-1.52,8.2-1.02,2.46-2.49,4.57-4.42,6.33s-4.3,3.12-7.1,4.07c-2.8.96-6,1.44-9.59,1.44s-6.79-.48-9.59-1.44c-2.8-.96-5.17-2.31-7.1-4.07s-3.41-3.87-4.42-6.33c-1.02-2.46-1.52-5.2-1.52-8.2v-26.34Z"/>
      <path class="cls-1" d="m606.64,391.86h38.99v8.14h-29.71v9.14h26.31v7.65h-26.31v12.74h30.32v8.12h-39.61v-45.79Z"/>
      <path class="cls-1" d="m671.74,445.24c1.35-.82,2.5-1.68,3.47-2.58.97-.9,1.76-1.89,2.39-2.97.62-1.08,1.08-2.29,1.38-3.63.29-1.34.44-2.86.44-4.56v-39.64h9.29v37.97c0,2.03-.09,3.88-.26,5.55s-.46,3.2-.86,4.6c-.4,1.4-.94,2.68-1.61,3.85s-1.5,2.29-2.49,3.34c-.99,1.06-2.15,2.07-3.49,3.05-1.34.98-2.89,1.96-4.64,2.96l-3.6-7.94Z"/>
      <path class="cls-1" d="m740.18,391.86h9.84l22.15,45.79h-9.76l-3.66-7.71h-26.75l-3.54,7.71h-9.79l21.5-45.79Zm14.91,30.44l-9.9-20.8-9.64,20.8h19.54Z"/>
      <path class="cls-1" d="m811.33,426.32l-20.01-34.45h10.52l14.09,26.04,13.92-26.04h10.52l-19.75,34.39v11.4h-9.29v-11.34Z"/>
      <path class="cls-1" d="m867.53,424.03c1.66.94,3.34,1.78,5.05,2.53,1.71.75,3.48,1.39,5.32,1.9,1.84.52,3.76.91,5.79,1.19,2.02.27,4.17.41,6.46.41,2.75,0,5.1-.18,7.03-.54,1.93-.36,3.51-.86,4.73-1.49,1.22-.63,2.11-1.39,2.67-2.27s.83-1.84.83-2.87c0-1.66-.69-2.97-2.08-3.94-1.39-.97-3.53-1.45-6.42-1.45-1.27,0-2.61.08-4.01.25-1.41.17-2.83.35-4.26.54-1.44.2-2.85.38-4.25.54-1.4.17-2.71.25-3.94.25-2.05,0-4.02-.26-5.9-.79-1.89-.53-3.56-1.32-5.01-2.37-1.46-1.05-2.61-2.37-3.47-3.96-.86-1.58-1.29-3.43-1.29-5.54,0-1.25.17-2.49.51-3.72.34-1.23.89-2.41,1.64-3.53.75-1.12,1.72-2.17,2.92-3.13,1.19-.97,2.63-1.8,4.32-2.5,1.69-.7,3.64-1.25,5.86-1.66,2.22-.4,4.74-.6,7.57-.6,2.05,0,4.11.11,6.18.34,2.07.22,4.09.54,6.05.95s3.85.9,5.67,1.48c1.82.58,3.51,1.22,5.07,1.92l-4.07,7.5c-1.29-.57-2.68-1.09-4.16-1.57-1.48-.48-3.04-.89-4.66-1.25-1.62-.35-3.3-.63-5.02-.83s-3.49-.31-5.29-.31c-2.56,0-4.66.19-6.31.56-1.65.37-2.96.85-3.94,1.42-.98.58-1.66,1.22-2.04,1.93-.38.71-.57,1.42-.57,2.12,0,1.37.62,2.49,1.85,3.35,1.23.87,3.11,1.3,5.62,1.3,1.02,0,2.18-.07,3.5-.22s2.71-.31,4.16-.48c1.45-.18,2.94-.34,4.45-.48,1.51-.15,2.98-.22,4.41-.22,2.7,0,5.08.3,7.16.91,2.08.61,3.82,1.47,5.23,2.59,1.41,1.12,2.47,2.48,3.19,4.07.72,1.59,1.08,3.37,1.08,5.35,0,2.64-.61,4.99-1.83,7.05-1.22,2.06-2.96,3.8-5.21,5.21-2.26,1.42-4.98,2.49-8.16,3.22-3.18.73-6.73,1.1-10.63,1.1-2.58,0-5.1-.16-7.56-.48s-4.82-.78-7.08-1.38c-2.26-.6-4.4-1.31-6.45-2.14-2.04-.83-3.93-1.74-5.67-2.74l4.95-7.53Z"/>
      <path class="cls-1" d="m497.44,463.87h24.46c2.99,0,5.59.32,7.81.95,2.22.63,4.06,1.51,5.52,2.62s2.55,2.44,3.27,3.97c.71,1.53,1.07,3.19,1.07,4.97,0,2.91-.92,5.46-2.75,7.65,2.11,1.25,3.68,2.87,4.72,4.86,1.04,1.99,1.55,4.26,1.55,6.8,0,2.13-.36,4.05-1.07,5.77-.71,1.72-1.8,3.19-3.25,4.41-1.46,1.22-3.29,2.16-5.51,2.81-2.22.65-4.83.98-7.84.98h-27.98v-45.79Zm28.04,17.58c.8,0,1.58.03,2.34.09,1.31-1.25,1.96-2.68,1.96-4.28s-.65-2.94-1.95-3.85c-1.3-.91-3.2-1.36-5.7-1.36h-15.41v9.4h18.75Zm.18,20.13c2.5,0,4.4-.54,5.7-1.61,1.3-1.07,1.95-2.59,1.95-4.54s-.65-3.48-1.95-4.57c-1.3-1.09-3.2-1.64-5.7-1.64h-18.93v12.36h18.93Z"/>
      <path class="cls-1" d="m557.31,463.87h9.35v45.79h-9.35v-45.79Z"/>
      <path class="cls-1" d="m586.63,496.03c1.66.94,3.34,1.78,5.05,2.53,1.71.75,3.48,1.39,5.32,1.9,1.84.52,3.76.91,5.79,1.19,2.02.27,4.17.41,6.46.41,2.75,0,5.1-.18,7.03-.54s3.51-.86,4.73-1.49c1.22-.63,2.11-1.39,2.67-2.27s.83-1.84.83-2.87c0-1.66-.69-2.97-2.08-3.94-1.39-.97-3.53-1.45-6.42-1.45-1.27,0-2.61.08-4.01.25s-2.83.35-4.26.54-2.85.38-4.25.54c-1.4.17-2.71.25-3.94.25-2.05,0-4.02-.26-5.9-.79-1.89-.53-3.56-1.32-5.01-2.37-1.46-1.05-2.61-2.37-3.47-3.96-.86-1.58-1.29-3.43-1.29-5.54,0-1.25.17-2.49.51-3.72.34-1.23.89-2.41,1.64-3.53.75-1.12,1.72-2.17,2.92-3.13,1.19-.97,2.63-1.8,4.32-2.5,1.69-.7,3.64-1.25,5.86-1.66,2.22-.4,4.74-.6,7.57-.6,2.05,0,4.11.11,6.18.34,2.07.22,4.09.54,6.05.95s3.85.9,5.67,1.48,3.51,1.22,5.07,1.92l-4.07,7.5c-1.29-.57-2.68-1.09-4.16-1.57-1.48-.48-3.04-.89-4.66-1.25-1.62-.35-3.3-.63-5.02-.83s-3.49-.31-5.29-.31c-2.56,0-4.66.19-6.31.56-1.65.37-2.96.84-3.94,1.42-.98.58-1.66,1.22-2.04,1.93s-.57,1.42-.57,2.12c0,1.37.62,2.49,1.85,3.35s3.11,1.3,5.62,1.3c1.02,0,2.18-.07,3.5-.22s2.71-.31,4.16-.48c1.45-.18,2.94-.34,4.45-.48,1.51-.15,2.98-.22,4.41-.22,2.7,0,5.08.3,7.16.91s3.82,1.47,5.23,2.59,2.47,2.48,3.19,4.07c.72,1.59,1.08,3.37,1.08,5.35,0,2.64-.61,4.99-1.83,7.05-1.22,2.06-2.96,3.8-5.21,5.21s-4.98,2.49-8.16,3.22c-3.18.73-6.73,1.1-10.63,1.1-2.58,0-5.1-.16-7.56-.48s-4.82-.78-7.08-1.38-4.4-1.31-6.45-2.14c-2.04-.83-3.93-1.74-5.67-2.74l4.95-7.53Z"/>
      <path class="cls-1" d="m656.79,472.01h-16.9v-8.14h43.1v8.14h-16.9v37.65h-9.29v-37.65Z"/>
      <path class="cls-1" d="m691.39,463.87h23.29c3.52,0,6.56.37,9.14,1.1s4.72,1.79,6.42,3.18,2.96,3.08,3.79,5.07c.83,1.99,1.25,4.25,1.25,6.77,0,1.7-.21,3.32-.62,4.85s-1.04,2.94-1.89,4.23-1.92,2.44-3.21,3.44-2.8,1.84-4.54,2.5l9.96,14.65h-11.37l-8.61-13.01h-.26l-14.06-.03v13.04h-9.29v-45.79Zm23.53,24.73c1.76,0,3.3-.21,4.61-.62s2.42-.99,3.31-1.73c.89-.74,1.55-1.65,1.99-2.71s.66-2.25.66-3.56c0-2.56-.88-4.54-2.64-5.93s-4.4-2.09-7.94-2.09h-14.24v16.64h14.24Z"/>
      <path class="cls-1" d="m745.06,486.63c0-3.46.63-6.62,1.9-9.49,1.27-2.87,3.05-5.34,5.35-7.4,2.29-2.06,5.05-3.66,8.26-4.79,3.21-1.13,6.77-1.7,10.68-1.7s7.44.57,10.66,1.7,5.98,2.73,8.28,4.79c2.29,2.06,4.08,4.53,5.35,7.4,1.27,2.87,1.9,6.04,1.9,9.49s-.63,6.67-1.9,9.57c-1.27,2.9-3.05,5.4-5.35,7.48-2.3,2.09-5.05,3.72-8.28,4.88s-6.78,1.74-10.66,1.74-7.47-.58-10.68-1.74c-3.21-1.16-5.97-2.79-8.26-4.88-2.3-2.09-4.08-4.58-5.35-7.48-1.27-2.9-1.9-6.09-1.9-9.57Zm9.29,0c0,2.36.42,4.49,1.27,6.39s2.03,3.51,3.54,4.85c1.51,1.34,3.3,2.37,5.36,3.09,2.06.72,4.3,1.08,6.72,1.08s4.66-.36,6.72-1.08c2.06-.72,3.84-1.75,5.35-3.09,1.5-1.34,2.69-2.95,3.54-4.85.86-1.89,1.29-4.02,1.29-6.39s-.43-4.48-1.29-6.36c-.86-1.88-2.04-3.46-3.54-4.76-1.5-1.3-3.29-2.29-5.35-2.97-2.06-.68-4.3-1.03-6.72-1.03s-4.66.34-6.72,1.03c-2.06.68-3.85,1.67-5.36,2.97-1.51,1.3-2.7,2.89-3.54,4.76s-1.27,3.99-1.27,6.36Z"/>
    </g>
    <g>
      <path class="cls-1" d="m482.75,529.48h3.94l8.86,18.32h-3.9l-1.46-3.08h-10.7l-1.42,3.08h-3.91l8.6-18.32Zm5.96,12.18l-3.96-8.32-3.86,8.32h7.82Z"/>
      <path class="cls-1" d="m505.25,538.53c0-1.3.25-2.52.74-3.65s1.21-2.11,2.14-2.94,2.07-1.49,3.42-1.96,2.87-.71,4.58-.71c1.49,0,2.86.15,4.11.45s2.4.76,3.47,1.38l-1.71,2.81c-.32-.21-.69-.4-1.11-.56s-.86-.3-1.34-.42-.96-.2-1.46-.26-1-.09-1.49-.09c-1.19,0-2.25.15-3.18.44s-1.71.7-2.35,1.23-1.12,1.16-1.45,1.89-.5,1.53-.5,2.41.17,1.74.52,2.5.84,1.41,1.49,1.96,1.45.98,2.39,1.29,2.01.46,3.19.46c.54,0,1.07-.04,1.61-.12s1.04-.19,1.54-.32.97-.3,1.44-.49.89-.4,1.29-.63l1.71,2.81c-1,.64-2.16,1.14-3.47,1.51s-2.71.54-4.18.54c-1.88,0-3.54-.24-4.96-.73s-2.61-1.16-3.56-2.02-1.67-1.86-2.15-3.02-.72-2.41-.72-3.74Z"/>
      <path class="cls-1" d="m527.95,533.96h3.46v6.75c0,.64.07,1.22.21,1.75s.38.98.72,1.35.79.67,1.36.87,1.27.31,2.12.31c.4,0,.8-.04,1.21-.13s.8-.21,1.18-.36.72-.33,1.05-.54.6-.44.84-.69v-9.32h3.47v13.84h-3.47v-1.18c-.85.51-1.71.87-2.57,1.09s-1.68.33-2.45.33c-1.27,0-2.35-.15-3.25-.46s-1.64-.75-2.21-1.33-.99-1.3-1.26-2.14-.4-1.81-.4-2.9v-7.24Z"/>
      <path class="cls-1" d="m548.06,528.36h3.47v19.44h-3.47v-19.44Z"/>
      <path class="cls-1" d="m557.8,532.08c-.34,0-.65-.05-.93-.15s-.51-.23-.71-.4-.35-.36-.45-.59-.16-.46-.16-.71.05-.5.16-.72.26-.42.45-.58.43-.29.71-.39.59-.15.93-.15.67.05.94.15.51.23.71.39.35.36.45.58.16.46.16.72-.05.49-.16.71-.26.42-.45.59-.43.3-.71.4-.59.15-.94.15Zm-1.73,1.89h3.47v13.83h-3.47v-13.83Z"/>
      <path class="cls-1" d="m563.97,533.97h3.47v1.17c.92-.52,1.8-.89,2.64-1.1s1.66-.32,2.47-.32c1.05,0,2.03.15,2.93.46s1.68.77,2.33,1.38,1.17,1.37,1.54,2.28.56,1.96.56,3.16v6.8h-3.46v-6.23c0-.76-.11-1.44-.32-2.03s-.52-1.1-.93-1.51-.89-.72-1.46-.94-1.22-.32-1.93-.32c-.38,0-.76.04-1.15.12s-.78.19-1.16.33-.74.32-1.1.54-.67.46-.96.73v9.32h-3.47v-13.83Z"/>
      <path class="cls-1" d="m583.51,543.44c0-.66.14-1.27.43-1.82s.72-1.02,1.3-1.41,1.3-.7,2.16-.91,1.87-.32,3.02-.32c.85,0,1.75.06,2.69.19s1.91.32,2.91.57c-.04-.44-.17-.84-.4-1.21s-.54-.69-.94-.96-.89-.48-1.45-.63-1.21-.22-1.93-.22c-.39,0-.82.02-1.29.07s-.95.12-1.45.21-.99.21-1.48.35-.94.31-1.37.5l-1.05-2.85c.52-.19,1.08-.36,1.68-.52s1.21-.29,1.83-.4,1.25-.2,1.88-.26,1.23-.09,1.82-.09c2.59,0,4.51.66,5.77,1.98s1.89,3.34,1.89,6.07v6.02h-3.47v-1.3c-.36.21-.75.41-1.18.6s-.89.35-1.39.49-1.04.25-1.61.33-1.18.12-1.82.12c-1.08,0-2.03-.12-2.84-.35s-1.5-.56-2.04-.97-.96-.9-1.24-1.46-.42-1.17-.42-1.82Zm3.66-.12c0,.23.06.44.18.65s.3.39.56.55.59.29.99.39.89.15,1.46.15c.61,0,1.2-.05,1.77-.16s1.1-.25,1.59-.43.94-.39,1.34-.62.73-.48,1-.73v-.61c-.53-.15-1.06-.27-1.58-.38s-1.02-.18-1.49-.24-.92-.1-1.34-.12-.78-.04-1.1-.04c-.65,0-1.19.04-1.62.13s-.78.2-1.04.35-.45.31-.56.51-.16.4-.16.61Z"/>
      <path class="cls-1" d="m604.1,533.97h3.47v1.99c.77-.57,1.57-1.06,2.43-1.48s1.7-.73,2.54-.95l1.02,3.18c-1.34.13-2.51.43-3.52.9s-1.83,1.12-2.47,1.96v8.23h-3.47v-13.83Z"/>
      <path class="cls-1" d="m617.78,549.53c.36.23.75.44,1.17.62s.86.33,1.32.45.92.21,1.4.26.95.09,1.42.09c1.59,0,2.82-.34,3.69-1.03s1.29-1.71,1.29-3.08v-.47c-.3.21-.65.4-1.03.58s-.79.33-1.22.45-.89.22-1.37.29-.97.1-1.46.1c-1.05,0-2-.15-2.83-.46s-1.54-.76-2.11-1.36-1.01-1.33-1.32-2.21-.46-1.88-.46-3v-6.8h3.46v5.84c0,1.67.32,2.9.96,3.7s1.64,1.19,3.02,1.19c.97,0,1.83-.17,2.57-.51s1.34-.78,1.79-1.31v-8.91h3.47v12.25c0,1.32-.19,2.47-.56,3.44s-.92,1.78-1.63,2.42-1.59,1.12-2.63,1.44-2.22.47-3.54.47-2.49-.14-3.61-.41-2.14-.64-3.07-1.11l1.29-2.93Z"/>
      <path class="cls-1" d="m644.43,529.48h15.6v3.26h-11.88v3.66h10.52v3.06h-10.52v5.1h12.13v3.25h-15.84v-18.32Z"/>
      <path class="cls-1" d="m667.55,540.88l-5.72-6.93h4.43l3.47,4.22,3.29-4.22h4.32l-5.38,6.91,5.72,6.93h-4.43l-3.57-4.32-3.32,4.32h-4.32l5.51-6.91Z"/>
      <path class="cls-1" d="m683.28,553.45h-3.47v-19.48h3.47v1.3c.3-.21.66-.41,1.08-.6s.86-.35,1.34-.49.97-.25,1.48-.33,1.02-.12,1.52-.12c1.17,0,2.25.17,3.23.52s1.82.83,2.53,1.45,1.25,1.37,1.65,2.24.59,1.83.59,2.89-.21,2.1-.62,2.98-.99,1.64-1.72,2.27-1.6,1.11-2.6,1.45-2.09.51-3.26.51c-.5,0-.99-.03-1.48-.09s-.96-.15-1.41-.26-.87-.24-1.27-.39-.74-.32-1.05-.5v6.64Zm0-10c.35.28.72.52,1.11.71s.79.36,1.2.48.82.22,1.23.28.82.09,1.21.09c.8,0,1.51-.11,2.13-.32s1.14-.51,1.57-.88.75-.82.98-1.32.34-1.06.34-1.65c0-.55-.11-1.08-.33-1.57s-.54-.92-.96-1.29-.92-.66-1.51-.88-1.25-.32-1.99-.32c-.47,0-.94.04-1.41.13s-.92.22-1.35.38-.84.36-1.22.6-.71.5-.99.79v4.79Z"/>
      <path class="cls-1" d="m699.3,540.84c0-.94.19-1.83.57-2.69s.93-1.61,1.65-2.27,1.6-1.18,2.64-1.57,2.23-.59,3.56-.59,2.51.2,3.57.59,1.96.94,2.7,1.62,1.3,1.5,1.7,2.43.59,1.93.59,2.99c0,.13,0,.28,0,.43s-.01.29-.03.42h-13.08c.15.41.39.79.72,1.14s.75.64,1.25.89,1.08.44,1.73.58,1.38.21,2.18.21,1.59-.08,2.38-.25,1.54-.38,2.26-.64l1.17,2.65c-.45.21-.91.4-1.38.56s-.95.29-1.45.4-1.03.19-1.58.24-1.13.08-1.74.08c-1.55,0-2.92-.19-4.09-.56s-2.15-.89-2.94-1.54-1.38-1.41-1.78-2.29-.6-1.82-.6-2.82Zm13.3-1.35c-.12-.38-.32-.74-.58-1.07s-.59-.62-.98-.87-.84-.44-1.36-.58-1.08-.21-1.7-.21c-.66,0-1.25.07-1.79.22s-1.01.35-1.42.6-.74.54-1.01.87-.47.68-.59,1.04h9.43Z"/>
      <path class="cls-1" d="m720.01,533.97h3.47v1.99c.77-.57,1.57-1.06,2.43-1.48s1.7-.73,2.54-.95l1.02,3.18c-1.34.13-2.51.43-3.52.9s-1.83,1.12-2.47,1.96v8.23h-3.47v-13.83Z"/>
      <path class="cls-1" d="m733.87,532.08c-.34,0-.65-.05-.93-.15s-.51-.23-.71-.4-.35-.36-.45-.59-.16-.46-.16-.71.05-.5.16-.72.26-.42.45-.58.43-.29.71-.39.59-.15.93-.15.67.05.94.15.51.23.71.39.35.36.45.58.16.46.16.72-.05.49-.16.71-.26.42-.45.59-.43.3-.71.4-.59.15-.94.15Zm-1.73,1.89h3.47v13.83h-3.47v-13.83Z"/>
      <path class="cls-1" d="m739.39,540.84c0-.94.19-1.83.57-2.69s.93-1.61,1.65-2.27,1.6-1.18,2.64-1.57,2.23-.59,3.56-.59,2.51.2,3.57.59,1.96.94,2.7,1.62,1.3,1.5,1.7,2.43.59,1.93.59,2.99c0,.13,0,.28,0,.43s-.01.29-.03.42h-13.08c.15.41.39.79.72,1.14s.75.64,1.25.89,1.08.44,1.73.58,1.38.21,2.18.21,1.59-.08,2.38-.25,1.54-.38,2.26-.64l1.17,2.65c-.45.21-.91.4-1.38.56s-.95.29-1.45.4-1.03.19-1.58.24-1.13.08-1.74.08c-1.55,0-2.92-.19-4.09-.56s-2.15-.89-2.94-1.54-1.38-1.41-1.78-2.29-.6-1.82-.6-2.82Zm13.3-1.35c-.12-.38-.32-.74-.58-1.07s-.59-.62-.98-.87-.84-.44-1.36-.58-1.08-.21-1.7-.21c-.66,0-1.25.07-1.79.22s-1.01.35-1.42.6-.74.54-1.01.87-.47.68-.59,1.04h9.43Z"/>
      <path class="cls-1" d="m760.1,533.97h3.47v1.17c.92-.52,1.8-.89,2.64-1.1s1.66-.32,2.47-.32c1.05,0,2.03.15,2.93.46s1.68.77,2.33,1.38,1.17,1.37,1.54,2.28.56,1.96.56,3.16v6.8h-3.46v-6.23c0-.76-.11-1.44-.32-2.03s-.52-1.1-.93-1.51-.89-.72-1.46-.94-1.22-.32-1.93-.32c-.38,0-.76.04-1.15.12s-.78.19-1.16.33-.74.32-1.1.54-.67.46-.96.73v9.32h-3.47v-13.83Z"/>
      <path class="cls-1" d="m779.46,540.92c0-1.02.19-1.96.56-2.84s.91-1.64,1.63-2.29,1.59-1.15,2.62-1.52,2.22-.55,3.54-.55c.58,0,1.16.04,1.75.11s1.15.17,1.69.3,1.05.28,1.53.46.89.37,1.24.58l-1.61,2.61c-.76-.35-1.47-.61-2.15-.77s-1.36-.25-2.06-.25c-.8,0-1.51.1-2.14.31s-1.17.5-1.61.87-.78.81-1.01,1.31-.35,1.05-.35,1.65.12,1.14.37,1.65.59.94,1.04,1.3.99.65,1.63.86,1.35.31,2.13.31c.86,0,1.67-.12,2.43-.36s1.47-.57,2.13-.97l1.61,2.61c-.41.25-.86.48-1.35.7s-1,.4-1.55.56-1.13.28-1.73.37-1.23.13-1.88.13c-1.32,0-2.5-.18-3.55-.54s-1.93-.86-2.66-1.49-1.28-1.39-1.67-2.26-.58-1.81-.58-2.84Z"/>
      <path class="cls-1" d="m797.51,540.84c0-.94.19-1.83.57-2.69s.93-1.61,1.65-2.27,1.6-1.18,2.64-1.57,2.23-.59,3.56-.59,2.51.2,3.57.59,1.96.94,2.7,1.62,1.3,1.5,1.7,2.43.59,1.93.59,2.99c0,.13,0,.28,0,.43s-.01.29-.03.42h-13.08c.15.41.39.79.72,1.14s.75.64,1.25.89,1.08.44,1.73.58,1.38.21,2.18.21,1.59-.08,2.38-.25,1.54-.38,2.26-.64l1.17,2.65c-.45.21-.91.4-1.38.56s-.95.29-1.45.4-1.03.19-1.58.24-1.13.08-1.74.08c-1.55,0-2.92-.19-4.09-.56s-2.15-.89-2.94-1.54-1.38-1.41-1.78-2.29-.6-1.82-.6-2.82Zm13.3-1.35c-.12-.38-.32-.74-.58-1.07s-.59-.62-.98-.87-.84-.44-1.36-.58-1.08-.21-1.7-.21c-.66,0-1.25.07-1.79.22s-1.01.35-1.42.6-.74.54-1.01.87-.47.68-.59,1.04h9.43Z"/>
    </g>
  </g>
</svg>